<mxfile host="app.diagrams.net" agent="Mozilla/5.0 (Windows NT 10.0; Win64; x64) AppleWebKit/537.36 (KHTML, like Gecko) Chrome/134.0.0.0 Safari/537.36" version="26.1.1">
  <diagram name="Página-1" id="MAKnKNB_yMKwPgFOE5bY">
    <mxGraphModel dx="1114" dy="566" grid="1" gridSize="10" guides="1" tooltips="1" connect="1" arrows="1" fold="1" page="1" pageScale="1" pageWidth="827" pageHeight="1169" math="0" shadow="0">
      <root>
        <mxCell id="0" />
        <mxCell id="1" parent="0" />
        <mxCell id="giqZUg06CIO-ysCx3wUL-1" value="Matricula de aluno" style="swimlane;childLayout=stackLayout;resizeParent=1;resizeParentMax=0;horizontal=0;startSize=20;horizontalStack=0;html=1;" vertex="1" parent="1">
          <mxGeometry x="34" y="170" width="760" height="360" as="geometry" />
        </mxCell>
        <mxCell id="giqZUg06CIO-ysCx3wUL-2" value="Aluno" style="swimlane;startSize=20;horizontal=0;html=1;" vertex="1" parent="giqZUg06CIO-ysCx3wUL-1">
          <mxGeometry x="20" width="740" height="120" as="geometry" />
        </mxCell>
        <mxCell id="giqZUg06CIO-ysCx3wUL-8" value="" style="points=[[0.145,0.145,0],[0.5,0,0],[0.855,0.145,0],[1,0.5,0],[0.855,0.855,0],[0.5,1,0],[0.145,0.855,0],[0,0.5,0]];shape=mxgraph.bpmn.event;html=1;verticalLabelPosition=bottom;labelBackgroundColor=#ffffff;verticalAlign=top;align=center;perimeter=ellipsePerimeter;outlineConnect=0;aspect=fixed;outline=standard;symbol=general;" vertex="1" parent="giqZUg06CIO-ysCx3wUL-2">
          <mxGeometry x="107" y="40" width="40" height="40" as="geometry" />
        </mxCell>
        <mxCell id="giqZUg06CIO-ysCx3wUL-10" value="" style="edgeStyle=elbowEdgeStyle;fontSize=12;html=1;endArrow=blockThin;endFill=1;rounded=0;exitX=1;exitY=0.5;exitDx=0;exitDy=0;exitPerimeter=0;entryX=0;entryY=0.5;entryDx=0;entryDy=0;entryPerimeter=0;" edge="1" parent="giqZUg06CIO-ysCx3wUL-2" source="giqZUg06CIO-ysCx3wUL-8" target="giqZUg06CIO-ysCx3wUL-12">
          <mxGeometry width="160" relative="1" as="geometry">
            <mxPoint x="126" y="60" as="sourcePoint" />
            <mxPoint x="186" y="60" as="targetPoint" />
          </mxGeometry>
        </mxCell>
        <mxCell id="giqZUg06CIO-ysCx3wUL-12" value="Solicita&lt;div&gt;Matrícula&lt;/div&gt;" style="points=[[0.25,0,0],[0.5,0,0],[0.75,0,0],[1,0.25,0],[1,0.5,0],[1,0.75,0],[0.75,1,0],[0.5,1,0],[0.25,1,0],[0,0.75,0],[0,0.5,0],[0,0.25,0]];shape=mxgraph.bpmn.task2;whiteSpace=wrap;rectStyle=rounded;size=10;html=1;container=1;expand=0;collapsible=0;taskMarker=abstract;" vertex="1" parent="giqZUg06CIO-ysCx3wUL-2">
          <mxGeometry x="296" y="30" width="100" height="60" as="geometry" />
        </mxCell>
        <mxCell id="giqZUg06CIO-ysCx3wUL-19" value="Inicio" style="text;html=1;align=center;verticalAlign=middle;resizable=0;points=[];autosize=1;strokeColor=none;fillColor=none;" vertex="1" parent="giqZUg06CIO-ysCx3wUL-2">
          <mxGeometry x="102" y="80" width="50" height="30" as="geometry" />
        </mxCell>
        <mxCell id="giqZUg06CIO-ysCx3wUL-3" value="Sistema" style="swimlane;startSize=20;horizontal=0;html=1;" vertex="1" parent="giqZUg06CIO-ysCx3wUL-1">
          <mxGeometry x="20" y="120" width="740" height="120" as="geometry" />
        </mxCell>
        <mxCell id="giqZUg06CIO-ysCx3wUL-16" value="" style="points=[[0.25,0.25,0],[0.5,0,0],[0.75,0.25,0],[1,0.5,0],[0.75,0.75,0],[0.5,1,0],[0.25,0.75,0],[0,0.5,0]];shape=mxgraph.bpmn.gateway2;html=1;verticalLabelPosition=bottom;labelBackgroundColor=#ffffff;verticalAlign=top;align=center;perimeter=rhombusPerimeter;outlineConnect=0;outline=none;symbol=none;gwType=exclusive;" vertex="1" parent="giqZUg06CIO-ysCx3wUL-3">
          <mxGeometry x="321" y="35" width="50" height="50" as="geometry" />
        </mxCell>
        <mxCell id="giqZUg06CIO-ysCx3wUL-17" value="" style="points=[[0.145,0.145,0],[0.5,0,0],[0.855,0.145,0],[1,0.5,0],[0.855,0.855,0],[0.5,1,0],[0.145,0.855,0],[0,0.5,0]];shape=mxgraph.bpmn.event;html=1;verticalLabelPosition=bottom;labelBackgroundColor=#ffffff;verticalAlign=top;align=center;perimeter=ellipsePerimeter;outlineConnect=0;aspect=fixed;outline=end;symbol=message;" vertex="1" parent="giqZUg06CIO-ysCx3wUL-3">
          <mxGeometry x="541" y="35" width="50" height="50" as="geometry" />
        </mxCell>
        <mxCell id="giqZUg06CIO-ysCx3wUL-18" value="" style="edgeStyle=elbowEdgeStyle;fontSize=12;html=1;endArrow=blockThin;endFill=1;rounded=0;exitX=1;exitY=0.5;exitDx=0;exitDy=0;exitPerimeter=0;entryX=0;entryY=0.5;entryDx=0;entryDy=0;entryPerimeter=0;" edge="1" parent="giqZUg06CIO-ysCx3wUL-3" source="giqZUg06CIO-ysCx3wUL-16" target="giqZUg06CIO-ysCx3wUL-17">
          <mxGeometry width="160" relative="1" as="geometry">
            <mxPoint x="266" y="50" as="sourcePoint" />
            <mxPoint x="306" y="40" as="targetPoint" />
          </mxGeometry>
        </mxCell>
        <mxCell id="giqZUg06CIO-ysCx3wUL-20" value="Aluno&amp;nbsp;&lt;div&gt;possui&lt;/div&gt;&lt;div&gt;pendências?&lt;/div&gt;" style="text;html=1;align=center;verticalAlign=middle;resizable=0;points=[];autosize=1;strokeColor=none;fillColor=none;" vertex="1" parent="giqZUg06CIO-ysCx3wUL-3">
          <mxGeometry x="246" y="30" width="90" height="60" as="geometry" />
        </mxCell>
        <mxCell id="giqZUg06CIO-ysCx3wUL-4" value="Matrícula" style="swimlane;startSize=20;horizontal=0;html=1;" vertex="1" parent="giqZUg06CIO-ysCx3wUL-1">
          <mxGeometry x="20" y="240" width="740" height="120" as="geometry" />
        </mxCell>
        <mxCell id="giqZUg06CIO-ysCx3wUL-22" value="Matríula&lt;div&gt;confirmada&lt;/div&gt;" style="points=[[0.25,0,0],[0.5,0,0],[0.75,0,0],[1,0.25,0],[1,0.5,0],[1,0.75,0],[0.75,1,0],[0.5,1,0],[0.25,1,0],[0,0.75,0],[0,0.5,0],[0,0.25,0]];shape=mxgraph.bpmn.task2;whiteSpace=wrap;rectStyle=rounded;size=10;html=1;container=1;expand=0;collapsible=0;taskMarker=abstract;" vertex="1" parent="giqZUg06CIO-ysCx3wUL-4">
          <mxGeometry x="296" y="30" width="100" height="60" as="geometry" />
        </mxCell>
        <mxCell id="giqZUg06CIO-ysCx3wUL-26" value="" style="points=[[0.145,0.145,0],[0.5,0,0],[0.855,0.145,0],[1,0.5,0],[0.855,0.855,0],[0.5,1,0],[0.145,0.855,0],[0,0.5,0]];shape=mxgraph.bpmn.event;html=1;verticalLabelPosition=bottom;labelBackgroundColor=#ffffff;verticalAlign=top;align=center;perimeter=ellipsePerimeter;outlineConnect=0;aspect=fixed;outline=end;symbol=message;" vertex="1" parent="giqZUg06CIO-ysCx3wUL-4">
          <mxGeometry x="541" y="35" width="50" height="50" as="geometry" />
        </mxCell>
        <mxCell id="giqZUg06CIO-ysCx3wUL-27" value="Notifica Aluno,&lt;div&gt;possui pendências&lt;/div&gt;" style="text;html=1;align=center;verticalAlign=middle;resizable=0;points=[];autosize=1;strokeColor=none;fillColor=none;" vertex="1" parent="giqZUg06CIO-ysCx3wUL-4">
          <mxGeometry x="507" y="81" width="120" height="40" as="geometry" />
        </mxCell>
        <mxCell id="giqZUg06CIO-ysCx3wUL-28" value="" style="edgeStyle=elbowEdgeStyle;fontSize=12;html=1;endArrow=blockThin;endFill=1;rounded=0;exitX=1;exitY=0.5;exitDx=0;exitDy=0;exitPerimeter=0;entryX=0;entryY=0.5;entryDx=0;entryDy=0;entryPerimeter=0;" edge="1" parent="giqZUg06CIO-ysCx3wUL-4" source="giqZUg06CIO-ysCx3wUL-22" target="giqZUg06CIO-ysCx3wUL-26">
          <mxGeometry width="160" relative="1" as="geometry">
            <mxPoint x="426" y="30" as="sourcePoint" />
            <mxPoint x="586" y="30" as="targetPoint" />
          </mxGeometry>
        </mxCell>
        <mxCell id="giqZUg06CIO-ysCx3wUL-15" value="" style="edgeStyle=elbowEdgeStyle;fontSize=12;html=1;endArrow=blockThin;endFill=1;rounded=0;exitX=0.5;exitY=1;exitDx=0;exitDy=0;exitPerimeter=0;entryX=0.5;entryY=0;entryDx=0;entryDy=0;entryPerimeter=0;" edge="1" parent="giqZUg06CIO-ysCx3wUL-1" source="giqZUg06CIO-ysCx3wUL-12" target="giqZUg06CIO-ysCx3wUL-16">
          <mxGeometry width="160" relative="1" as="geometry">
            <mxPoint x="406" y="170" as="sourcePoint" />
            <mxPoint x="366" y="150" as="targetPoint" />
          </mxGeometry>
        </mxCell>
        <mxCell id="giqZUg06CIO-ysCx3wUL-23" value="" style="edgeStyle=elbowEdgeStyle;fontSize=12;html=1;endArrow=blockThin;endFill=1;rounded=0;exitX=0.5;exitY=1;exitDx=0;exitDy=0;exitPerimeter=0;entryX=0.5;entryY=0;entryDx=0;entryDy=0;entryPerimeter=0;" edge="1" parent="giqZUg06CIO-ysCx3wUL-1" source="giqZUg06CIO-ysCx3wUL-16" target="giqZUg06CIO-ysCx3wUL-22">
          <mxGeometry width="160" relative="1" as="geometry">
            <mxPoint x="406" y="310" as="sourcePoint" />
            <mxPoint x="566" y="310" as="targetPoint" />
          </mxGeometry>
        </mxCell>
        <mxCell id="giqZUg06CIO-ysCx3wUL-5" value="&lt;div&gt;&lt;span style=&quot;font-size: 18px; background-color: transparent; color: light-dark(rgb(0, 0, 0), rgb(255, 255, 255));&quot;&gt;Exercícios de BPMN&lt;/span&gt;&lt;/div&gt;&lt;div&gt;&lt;div&gt;Fatec Taquaritinga - 5º ads noite 1ºsem 2025&lt;/div&gt;&lt;div&gt;Engenharia de software 2 - Profº Caique&lt;/div&gt;&lt;div&gt;Aluno: Lucas Ramos - 0220482313044&lt;/div&gt;&lt;/div&gt;&lt;div&gt;&lt;br&gt;&lt;/div&gt;&lt;div&gt;&lt;br&gt;&lt;/div&gt;&lt;div&gt;&lt;br&gt;&lt;/div&gt;&lt;div&gt;&lt;span style=&quot;font-size: 18px; background-color: transparent; color: light-dark(rgb(0, 0, 0), rgb(255, 255, 255));&quot;&gt;Processo de matrícula de aluno&lt;/span&gt;&lt;/div&gt;" style="text;html=1;align=center;verticalAlign=middle;whiteSpace=wrap;rounded=0;" vertex="1" parent="1">
          <mxGeometry x="0.5" y="10" width="827" height="140" as="geometry" />
        </mxCell>
        <mxCell id="giqZUg06CIO-ysCx3wUL-21" value="Notifica Aluno,&lt;div&gt;possui pendências&lt;/div&gt;" style="text;html=1;align=center;verticalAlign=middle;resizable=0;points=[];autosize=1;strokeColor=none;fillColor=none;" vertex="1" parent="1">
          <mxGeometry x="561" y="371" width="120" height="40" as="geometry" />
        </mxCell>
        <mxCell id="giqZUg06CIO-ysCx3wUL-24" value="Sim" style="text;html=1;align=center;verticalAlign=middle;resizable=0;points=[];autosize=1;strokeColor=none;fillColor=none;" vertex="1" parent="1">
          <mxGeometry x="440" y="325" width="40" height="30" as="geometry" />
        </mxCell>
        <mxCell id="giqZUg06CIO-ysCx3wUL-25" value="Não" style="text;html=1;align=center;verticalAlign=middle;resizable=0;points=[];autosize=1;strokeColor=none;fillColor=none;" vertex="1" parent="1">
          <mxGeometry x="392" y="385" width="50" height="30" as="geometry" />
        </mxCell>
        <mxCell id="giqZUg06CIO-ysCx3wUL-29" value="&lt;span style=&quot;font-weight: 700; text-wrap-mode: nowrap;&quot;&gt;&lt;font style=&quot;font-size: 18px;&quot;&gt;Solicitação de bolsa&lt;/font&gt;&lt;/span&gt;" style="text;html=1;align=center;verticalAlign=middle;whiteSpace=wrap;rounded=0;" vertex="1" parent="1">
          <mxGeometry x="2" y="640" width="818" height="70" as="geometry" />
        </mxCell>
        <mxCell id="giqZUg06CIO-ysCx3wUL-30" value="Solicitação de bolsa" style="swimlane;childLayout=stackLayout;resizeParent=1;resizeParentMax=0;horizontal=0;startSize=20;horizontalStack=0;html=1;" vertex="1" parent="1">
          <mxGeometry x="37" y="718" width="760" height="374" as="geometry" />
        </mxCell>
        <mxCell id="giqZUg06CIO-ysCx3wUL-31" value="Aluno" style="swimlane;startSize=20;horizontal=0;html=1;" vertex="1" parent="giqZUg06CIO-ysCx3wUL-30">
          <mxGeometry x="20" width="740" height="120" as="geometry" />
        </mxCell>
        <mxCell id="giqZUg06CIO-ysCx3wUL-32" value="" style="points=[[0.145,0.145,0],[0.5,0,0],[0.855,0.145,0],[1,0.5,0],[0.855,0.855,0],[0.5,1,0],[0.145,0.855,0],[0,0.5,0]];shape=mxgraph.bpmn.event;html=1;verticalLabelPosition=bottom;labelBackgroundColor=#ffffff;verticalAlign=top;align=center;perimeter=ellipsePerimeter;outlineConnect=0;aspect=fixed;outline=standard;symbol=general;" vertex="1" parent="giqZUg06CIO-ysCx3wUL-31">
          <mxGeometry x="62" y="42" width="40" height="40" as="geometry" />
        </mxCell>
        <mxCell id="giqZUg06CIO-ysCx3wUL-33" value="" style="edgeStyle=elbowEdgeStyle;fontSize=12;html=1;endArrow=blockThin;endFill=1;rounded=0;exitX=1;exitY=0.5;exitDx=0;exitDy=0;exitPerimeter=0;entryX=0;entryY=0.5;entryDx=0;entryDy=0;entryPerimeter=0;" edge="1" parent="giqZUg06CIO-ysCx3wUL-31" source="giqZUg06CIO-ysCx3wUL-32" target="giqZUg06CIO-ysCx3wUL-34">
          <mxGeometry width="160" relative="1" as="geometry">
            <mxPoint x="81" y="62" as="sourcePoint" />
            <mxPoint x="141" y="62" as="targetPoint" />
          </mxGeometry>
        </mxCell>
        <mxCell id="giqZUg06CIO-ysCx3wUL-34" value="Solicita&lt;div&gt;Bolsa&lt;/div&gt;" style="points=[[0.25,0,0],[0.5,0,0],[0.75,0,0],[1,0.25,0],[1,0.5,0],[1,0.75,0],[0.75,1,0],[0.5,1,0],[0.25,1,0],[0,0.75,0],[0,0.5,0],[0,0.25,0]];shape=mxgraph.bpmn.task2;whiteSpace=wrap;rectStyle=rounded;size=10;html=1;container=1;expand=0;collapsible=0;taskMarker=abstract;" vertex="1" parent="giqZUg06CIO-ysCx3wUL-31">
          <mxGeometry x="169" y="32" width="100" height="60" as="geometry" />
        </mxCell>
        <mxCell id="giqZUg06CIO-ysCx3wUL-35" value="Inicio" style="text;html=1;align=center;verticalAlign=middle;resizable=0;points=[];autosize=1;strokeColor=none;fillColor=none;" vertex="1" parent="giqZUg06CIO-ysCx3wUL-31">
          <mxGeometry x="57" y="82" width="50" height="30" as="geometry" />
        </mxCell>
        <mxCell id="giqZUg06CIO-ysCx3wUL-36" value="Comissão" style="swimlane;startSize=20;horizontal=0;html=1;" vertex="1" parent="giqZUg06CIO-ysCx3wUL-30">
          <mxGeometry x="20" y="120" width="740" height="125" as="geometry" />
        </mxCell>
        <mxCell id="giqZUg06CIO-ysCx3wUL-37" value="" style="points=[[0.25,0.25,0],[0.5,0,0],[0.75,0.25,0],[1,0.5,0],[0.75,0.75,0],[0.5,1,0],[0.25,0.75,0],[0,0.5,0]];shape=mxgraph.bpmn.gateway2;html=1;verticalLabelPosition=bottom;labelBackgroundColor=#ffffff;verticalAlign=top;align=center;perimeter=rhombusPerimeter;outlineConnect=0;outline=none;symbol=none;gwType=exclusive;" vertex="1" parent="giqZUg06CIO-ysCx3wUL-36">
          <mxGeometry x="411" y="35" width="50" height="50" as="geometry" />
        </mxCell>
        <mxCell id="giqZUg06CIO-ysCx3wUL-38" value="" style="points=[[0.145,0.145,0],[0.5,0,0],[0.855,0.145,0],[1,0.5,0],[0.855,0.855,0],[0.5,1,0],[0.145,0.855,0],[0,0.5,0]];shape=mxgraph.bpmn.event;html=1;verticalLabelPosition=bottom;labelBackgroundColor=#ffffff;verticalAlign=top;align=center;perimeter=ellipsePerimeter;outlineConnect=0;aspect=fixed;outline=end;symbol=message;" vertex="1" parent="giqZUg06CIO-ysCx3wUL-36">
          <mxGeometry x="631" y="35" width="50" height="50" as="geometry" />
        </mxCell>
        <mxCell id="giqZUg06CIO-ysCx3wUL-39" value="" style="edgeStyle=elbowEdgeStyle;fontSize=12;html=1;endArrow=blockThin;endFill=1;rounded=0;exitX=1;exitY=0.5;exitDx=0;exitDy=0;exitPerimeter=0;entryX=0;entryY=0.5;entryDx=0;entryDy=0;entryPerimeter=0;" edge="1" parent="giqZUg06CIO-ysCx3wUL-36" source="giqZUg06CIO-ysCx3wUL-37" target="giqZUg06CIO-ysCx3wUL-38">
          <mxGeometry width="160" relative="1" as="geometry">
            <mxPoint x="356" y="50" as="sourcePoint" />
            <mxPoint x="396" y="40" as="targetPoint" />
          </mxGeometry>
        </mxCell>
        <mxCell id="giqZUg06CIO-ysCx3wUL-40" value="Aprovado?" style="text;html=1;align=center;verticalAlign=middle;resizable=0;points=[];autosize=1;strokeColor=none;fillColor=none;" vertex="1" parent="giqZUg06CIO-ysCx3wUL-36">
          <mxGeometry x="396" y="5" width="80" height="30" as="geometry" />
        </mxCell>
        <mxCell id="giqZUg06CIO-ysCx3wUL-51" value="Não" style="text;html=1;align=center;verticalAlign=middle;resizable=0;points=[];autosize=1;strokeColor=none;fillColor=none;" vertex="1" parent="giqZUg06CIO-ysCx3wUL-36">
          <mxGeometry x="513" y="35" width="50" height="30" as="geometry" />
        </mxCell>
        <mxCell id="giqZUg06CIO-ysCx3wUL-50" value="Sim" style="text;html=1;align=center;verticalAlign=middle;resizable=0;points=[];autosize=1;strokeColor=none;fillColor=none;" vertex="1" parent="giqZUg06CIO-ysCx3wUL-36">
          <mxGeometry x="436" y="90" width="40" height="30" as="geometry" />
        </mxCell>
        <mxCell id="giqZUg06CIO-ysCx3wUL-49" value="Notifica Aluno,&lt;div&gt;não aprovado&lt;/div&gt;" style="text;html=1;align=center;verticalAlign=middle;resizable=0;points=[];autosize=1;strokeColor=none;fillColor=none;" vertex="1" parent="giqZUg06CIO-ysCx3wUL-36">
          <mxGeometry x="606" y="85" width="100" height="40" as="geometry" />
        </mxCell>
        <mxCell id="giqZUg06CIO-ysCx3wUL-52" value="Analisa" style="points=[[0.25,0,0],[0.5,0,0],[0.75,0,0],[1,0.25,0],[1,0.5,0],[1,0.75,0],[0.75,1,0],[0.5,1,0],[0.25,1,0],[0,0.75,0],[0,0.5,0],[0,0.25,0]];shape=mxgraph.bpmn.task2;whiteSpace=wrap;rectStyle=rounded;size=10;html=1;container=1;expand=0;collapsible=0;taskMarker=abstract;" vertex="1" parent="giqZUg06CIO-ysCx3wUL-36">
          <mxGeometry x="168" y="30" width="100" height="60" as="geometry" />
        </mxCell>
        <mxCell id="giqZUg06CIO-ysCx3wUL-46" value="" style="edgeStyle=elbowEdgeStyle;fontSize=12;html=1;endArrow=blockThin;endFill=1;rounded=0;exitX=1;exitY=0.5;exitDx=0;exitDy=0;exitPerimeter=0;entryX=0;entryY=0.5;entryDx=0;entryDy=0;entryPerimeter=0;" edge="1" parent="giqZUg06CIO-ysCx3wUL-36" source="giqZUg06CIO-ysCx3wUL-52" target="giqZUg06CIO-ysCx3wUL-37">
          <mxGeometry width="160" relative="1" as="geometry">
            <mxPoint x="293" y="62" as="sourcePoint" />
            <mxPoint x="313" y="92" as="targetPoint" />
          </mxGeometry>
        </mxCell>
        <mxCell id="giqZUg06CIO-ysCx3wUL-47" value="" style="edgeStyle=elbowEdgeStyle;fontSize=12;html=1;endArrow=blockThin;endFill=1;rounded=0;exitX=0.5;exitY=1;exitDx=0;exitDy=0;exitPerimeter=0;entryX=0.5;entryY=0;entryDx=0;entryDy=0;entryPerimeter=0;" edge="1" parent="giqZUg06CIO-ysCx3wUL-30" source="giqZUg06CIO-ysCx3wUL-37" target="giqZUg06CIO-ysCx3wUL-54">
          <mxGeometry width="160" relative="1" as="geometry">
            <mxPoint x="496" y="310" as="sourcePoint" />
            <mxPoint x="456" y="275" as="targetPoint" />
          </mxGeometry>
        </mxCell>
        <mxCell id="giqZUg06CIO-ysCx3wUL-53" value="" style="edgeStyle=elbowEdgeStyle;fontSize=12;html=1;endArrow=blockThin;endFill=1;rounded=0;exitX=0.5;exitY=1;exitDx=0;exitDy=0;exitPerimeter=0;entryX=0.5;entryY=0;entryDx=0;entryDy=0;entryPerimeter=0;" edge="1" parent="giqZUg06CIO-ysCx3wUL-30" source="giqZUg06CIO-ysCx3wUL-34" target="giqZUg06CIO-ysCx3wUL-52">
          <mxGeometry width="160" relative="1" as="geometry">
            <mxPoint x="293" y="222" as="sourcePoint" />
            <mxPoint x="453" y="222" as="targetPoint" />
          </mxGeometry>
        </mxCell>
        <mxCell id="giqZUg06CIO-ysCx3wUL-41" value="Secretaria" style="swimlane;startSize=20;horizontal=0;html=1;" vertex="1" parent="giqZUg06CIO-ysCx3wUL-30">
          <mxGeometry x="20" y="245" width="740" height="129" as="geometry" />
        </mxCell>
        <mxCell id="giqZUg06CIO-ysCx3wUL-43" value="" style="points=[[0.145,0.145,0],[0.5,0,0],[0.855,0.145,0],[1,0.5,0],[0.855,0.855,0],[0.5,1,0],[0.145,0.855,0],[0,0.5,0]];shape=mxgraph.bpmn.event;html=1;verticalLabelPosition=bottom;labelBackgroundColor=#ffffff;verticalAlign=top;align=center;perimeter=ellipsePerimeter;outlineConnect=0;aspect=fixed;outline=end;symbol=message;" vertex="1" parent="giqZUg06CIO-ysCx3wUL-41">
          <mxGeometry x="631" y="35" width="50" height="50" as="geometry" />
        </mxCell>
        <mxCell id="giqZUg06CIO-ysCx3wUL-44" value="Notifica Aluno,&lt;div&gt;bolsa rejeitada&lt;/div&gt;" style="text;html=1;align=center;verticalAlign=middle;resizable=0;points=[];autosize=1;strokeColor=none;fillColor=none;" vertex="1" parent="giqZUg06CIO-ysCx3wUL-41">
          <mxGeometry x="609" y="83" width="100" height="40" as="geometry" />
        </mxCell>
        <mxCell id="giqZUg06CIO-ysCx3wUL-45" value="" style="edgeStyle=elbowEdgeStyle;fontSize=12;html=1;endArrow=blockThin;endFill=1;rounded=0;exitX=1;exitY=0.5;exitDx=0;exitDy=0;exitPerimeter=0;entryX=0;entryY=0.5;entryDx=0;entryDy=0;entryPerimeter=0;" edge="1" parent="giqZUg06CIO-ysCx3wUL-41" source="giqZUg06CIO-ysCx3wUL-54" target="giqZUg06CIO-ysCx3wUL-43">
          <mxGeometry width="160" relative="1" as="geometry">
            <mxPoint x="486" y="60" as="sourcePoint" />
            <mxPoint x="583" y="60" as="targetPoint" />
          </mxGeometry>
        </mxCell>
        <mxCell id="giqZUg06CIO-ysCx3wUL-54" value="" style="points=[[0.25,0.25,0],[0.5,0,0],[0.75,0.25,0],[1,0.5,0],[0.75,0.75,0],[0.5,1,0],[0.25,0.75,0],[0,0.5,0]];shape=mxgraph.bpmn.gateway2;html=1;verticalLabelPosition=bottom;labelBackgroundColor=#ffffff;verticalAlign=top;align=center;perimeter=rhombusPerimeter;outlineConnect=0;outline=none;symbol=none;gwType=exclusive;" vertex="1" parent="giqZUg06CIO-ysCx3wUL-41">
          <mxGeometry x="411" y="35" width="50" height="50" as="geometry" />
        </mxCell>
        <mxCell id="giqZUg06CIO-ysCx3wUL-55" value="Há disponibilidade?" style="text;html=1;align=center;verticalAlign=middle;resizable=0;points=[];autosize=1;strokeColor=none;fillColor=none;" vertex="1" parent="giqZUg06CIO-ysCx3wUL-41">
          <mxGeometry x="371" y="81" width="130" height="30" as="geometry" />
        </mxCell>
        <mxCell id="giqZUg06CIO-ysCx3wUL-56" value="" style="points=[[0.145,0.145,0],[0.5,0,0],[0.855,0.145,0],[1,0.5,0],[0.855,0.855,0],[0.5,1,0],[0.145,0.855,0],[0,0.5,0]];shape=mxgraph.bpmn.event;html=1;verticalLabelPosition=bottom;labelBackgroundColor=#ffffff;verticalAlign=top;align=center;perimeter=ellipsePerimeter;outlineConnect=0;aspect=fixed;outline=end;symbol=message;" vertex="1" parent="giqZUg06CIO-ysCx3wUL-41">
          <mxGeometry x="203" y="35" width="50" height="50" as="geometry" />
        </mxCell>
        <mxCell id="giqZUg06CIO-ysCx3wUL-57" value="Notifica Aluno,&lt;div&gt;bolsa confirmada&lt;/div&gt;" style="text;html=1;align=center;verticalAlign=middle;resizable=0;points=[];autosize=1;strokeColor=none;fillColor=none;" vertex="1" parent="giqZUg06CIO-ysCx3wUL-41">
          <mxGeometry x="175" y="86" width="110" height="40" as="geometry" />
        </mxCell>
        <mxCell id="giqZUg06CIO-ysCx3wUL-58" value="" style="edgeStyle=elbowEdgeStyle;fontSize=12;html=1;endArrow=blockThin;endFill=1;rounded=0;exitX=0;exitY=0.5;exitDx=0;exitDy=0;exitPerimeter=0;entryX=1;entryY=0.5;entryDx=0;entryDy=0;entryPerimeter=0;" edge="1" parent="giqZUg06CIO-ysCx3wUL-41" source="giqZUg06CIO-ysCx3wUL-54" target="giqZUg06CIO-ysCx3wUL-56">
          <mxGeometry width="160" relative="1" as="geometry">
            <mxPoint x="253" y="147" as="sourcePoint" />
            <mxPoint x="403" y="147" as="targetPoint" />
          </mxGeometry>
        </mxCell>
        <mxCell id="giqZUg06CIO-ysCx3wUL-59" value="Sim" style="text;html=1;align=center;verticalAlign=middle;resizable=0;points=[];autosize=1;strokeColor=none;fillColor=none;" vertex="1" parent="giqZUg06CIO-ysCx3wUL-41">
          <mxGeometry x="336" y="35" width="40" height="30" as="geometry" />
        </mxCell>
        <mxCell id="giqZUg06CIO-ysCx3wUL-60" value="Não" style="text;html=1;align=center;verticalAlign=middle;resizable=0;points=[];autosize=1;strokeColor=none;fillColor=none;" vertex="1" parent="giqZUg06CIO-ysCx3wUL-41">
          <mxGeometry x="513" y="35" width="50" height="30" as="geometry" />
        </mxCell>
      </root>
    </mxGraphModel>
  </diagram>
</mxfile>
